<svg width="24" height="24" viewBox="0 0 24 24" fill="none" xmlns="http://www.w3.org/2000/svg">
<path d="M2 17.7996V1.99976H4V17.7996C4 18.3761 4.00127 18.7486 4.02442 19.032C4.04662 19.3036 4.08419 19.4044 4.10938 19.4539L4.19141 19.5876C4.28366 19.7145 4.40484 19.8185 4.5459 19.8904L4.59473 19.9119C4.65668 19.9341 4.76435 19.9587 4.96778 19.9753C5.25112 19.9985 5.62365 19.9998 6.2002 19.9998H22V21.9998H6.2002C5.65665 21.9998 5.18836 22.0008 4.80469 21.9695C4.45882 21.9412 4.11438 21.8832 3.78028 21.74L3.6377 21.6726C3.14381 21.4209 2.73058 21.0381 2.44239 20.5681L2.32715 20.3621C2.1344 19.9838 2.06259 19.5903 2.03028 19.1951C1.99893 18.8114 2 18.3431 2 17.7996ZM6 13.4998H8V18.4998H6V13.4998ZM10.5 10.4998H12.5V18.4998H10.5V10.4998ZM15 7.49976H17V18.4998H15V7.49976ZM19.5 4.49976H21.5V18.4998H19.5V4.49976Z" fill="#222222"></path>
</svg>