<svg width="24" height="24" viewBox="0 0 24 24" fill="none" xmlns="http://www.w3.org/2000/svg">
<path d="M7.85 22.75H5.15C2.49 22.75 1.25 21.51 1.25 18.85V16.15C1.25 13.49 2.49 12.25 5.15 12.25H7.85C10.51 12.25 11.75 13.49 11.75 16.15V18.85C11.75 21.51 10.51 22.75 7.85 22.75ZM5.15 13.75C3.31 13.75 2.75 14.31 2.75 16.15V18.85C2.75 20.69 3.31 21.25 5.15 21.25H7.85C9.69 21.25 10.25 20.69 10.25 18.85V16.15C10.25 14.31 9.69 13.75 7.85 13.75H5.15Z" fill="#222222"></path>
<path d="M1 18.8496V16.1504C1 14.7863 1.31732 13.7335 2.02539 13.0254C2.73346 12.3173 3.78627 12 5.15039 12L5.15 12.25L4.9043 12.2539C2.41357 12.3293 1.25 13.5733 1.25 16.15V18.85C1.25 21.4267 2.41357 22.6707 4.9043 22.7461L5.15 22.75H7.85C10.51 22.75 11.75 21.51 11.75 18.85V16.15C11.75 13.49 10.51 12.25 7.85 12.25L7.84961 12C9.21373 12 10.2665 12.3173 10.9746 13.0254C11.6827 13.7335 12 14.7863 12 16.1504V18.8496C12 20.2137 11.6827 21.2665 10.9746 21.9746C10.2665 22.6827 9.21373 23 7.84961 23H5.15039C3.78627 23 2.73346 22.6827 2.02539 21.9746C1.36165 21.3109 1.04146 20.3445 1.00391 19.1025L1 18.8496ZM7.84961 21L7.85 21.25H5.15L5.15039 21H7.84961ZM10 18.8496V16.1504C10 15.2391 9.85746 14.7305 9.56348 14.4365C9.26949 14.1425 8.76091 14 7.84961 14H5.15039C4.23909 14 3.73051 14.1425 3.43652 14.4365C3.14254 14.7305 3 15.2391 3 16.1504V18.8496C3 19.7609 3.14254 20.2695 3.43652 20.5635C3.73051 20.8575 4.23909 21 5.15039 21L5.15 21.25L4.82031 21.2432C3.24229 21.175 2.75 20.5752 2.75 18.85V16.15C2.75 14.4248 3.24229 13.825 4.82031 13.7568L5.15 13.75H7.85C9.69 13.75 10.25 14.31 10.25 16.15V18.85C10.25 20.69 9.69 21.25 7.85 21.25L7.84961 21C8.76091 21 9.26949 20.8575 9.56348 20.5635C9.85746 20.2695 10 19.7609 10 18.8496ZM7.84961 12L7.85 12.25H5.15L5.15039 12H7.84961Z" fill="#222222"></path>
<path d="M15 22.75C14.73 22.75 14.48 22.6 14.35 22.37C14.22 22.14 14.22 21.85 14.36 21.62L15.41 19.87C15.62 19.51 16.08 19.4 16.44 19.61C16.8 19.82 16.91 20.28 16.7 20.64L16.43 21.09C19.19 20.44 21.26 17.96 21.26 15C21.26 14.59 21.6 14.25 22.01 14.25C22.42 14.25 22.76 14.59 22.76 15C22.75 19.27 19.27 22.75 15 22.75Z" fill="#222222"></path>
<path d="M22.0096 14C22.5576 14 23.0096 14.4519 23.0096 15C22.999 19.4073 19.4079 23 14.9998 23C14.6383 22.9999 14.3062 22.8001 14.1326 22.4932C13.9594 22.1866 13.958 21.7997 14.1463 21.4902L15.1961 19.7412C15.4797 19.2587 16.0936 19.1189 16.5662 19.3945C17.0196 19.6593 17.1722 20.2146 16.9637 20.6729C19.3128 19.8563 21.0096 17.6249 21.0096 15C21.0096 14.4521 21.4617 14.0002 22.0096 14ZM21.26 15C21.26 17.96 19.19 20.44 16.43 21.09L16.7 20.64C16.8966 20.3026 16.8124 19.8772 16.5047 19.6523L16.44 19.61C16.08 19.4 15.62 19.51 15.41 19.87L14.36 21.62L14.3143 21.709C14.2223 21.9217 14.2363 22.1688 14.35 22.37C14.48 22.6 14.73 22.75 15 22.75C19.27 22.75 22.75 19.27 22.76 15C22.76 14.59 22.42 14.25 22.01 14.25C21.6 14.25 21.26 14.59 21.26 15Z" fill="#222222"></path>
<path d="M2 9.75C1.59 9.75 1.25 9.41 1.25 9C1.25 4.73 4.73 1.25 9 1.25C9.27 1.25 9.52 1.4 9.65 1.63C9.78 1.86 9.78 2.15 9.64 2.38L8.59 4.14C8.38 4.49 7.92 4.61 7.56 4.39C7.21 4.18 7.09 3.72 7.31 3.36L7.58 2.91C4.81 3.56 2.75 6.04 2.75 9C2.75 9.41 2.41 9.75 2 9.75Z" fill="#222222"></path>
<path d="M2.75 9C2.75 6.04 4.81 3.56 7.58 2.91L7.31 3.36L7.27246 3.42871C7.10587 3.77644 7.23229 4.19305 7.56 4.39C7.92 4.61 8.38 4.49 8.59 4.14L9.64 2.38C9.76253 2.1787 9.77763 1.93152 9.69238 1.71875L9.65 1.63C9.52 1.4 9.27 1.25 9 1.25C4.73 1.25 1.25 4.73 1.25 9C1.25 9.41 1.59 9.75 2 9.75C2.41 9.75 2.75 9.41 2.75 9ZM3 9C3 9.54807 2.54807 10 2 10C1.45193 10 1 9.54807 1 9C1 4.59193 4.59193 1 9 1C9.36157 1 9.69356 1.1999 9.86719 1.50684C10.0405 1.81342 10.0418 2.20027 9.85352 2.50977L8.80469 4.26855C8.52387 4.73658 7.90916 4.89644 7.42969 4.60352C6.9941 4.34075 6.82597 3.78798 7.04395 3.32617C4.68866 4.14261 3 6.37472 3 9Z" fill="#222222"></path>
<path d="M17.5 11.75C14.61 11.75 12.25 9.39 12.25 6.5C12.25 3.61 14.61 1.25 17.5 1.25C20.39 1.25 22.75 3.61 22.75 6.5C22.75 9.39 20.39 11.75 17.5 11.75ZM17.5 2.75C15.43 2.75 13.75 4.43 13.75 6.5C13.75 8.57 15.43 10.25 17.5 10.25C19.57 10.25 21.25 8.57 21.25 6.5C21.25 4.43 19.57 2.75 17.5 2.75Z" fill="#222222"></path>
<path d="M22.75 6.5C22.75 3.61 20.39 1.25 17.5 1.25C14.61 1.25 12.25 3.61 12.25 6.5C12.25 9.39 14.61 11.75 17.5 11.75C20.39 11.75 22.75 9.39 22.75 6.5ZM21 6.5C21 4.56807 19.4319 3 17.5 3C15.5681 3 14 4.56807 14 6.5C14 8.43193 15.5681 10 17.5 10V10.25C15.43 10.25 13.75 8.57 13.75 6.5C13.75 4.43 15.43 2.75 17.5 2.75C19.57 2.75 21.25 4.43 21.25 6.5C21.25 8.57 19.57 10.25 17.5 10.25V10C19.4319 10 21 8.43193 21 6.5ZM23 6.5C23 9.52807 20.5281 12 17.5 12C14.4719 12 12 9.52807 12 6.5C12 3.47193 14.4719 1 17.5 1C20.5281 1 23 3.47193 23 6.5Z" fill="#222222"></path>
</svg>