<svg width="24" height="24" viewBox="0 0 24 24" fill="none" xmlns="http://www.w3.org/2000/svg">
<path d="M21 8.91992L14.4082 13.5352C13.8891 13.8986 13.4359 14.2297 12.9404 14.4043L12.7256 14.4697C12.3088 14.5736 11.8751 14.5867 11.4541 14.5088L11.2744 14.4697C10.8373 14.3608 10.4427 14.1233 10.0225 13.8359L9.5918 13.5352L3 8.91992V15.2002C3 16.0566 3.00035 16.6388 3.03711 17.0889C3.07293 17.5273 3.13809 17.7518 3.21778 17.9082L3.29492 18.0459C3.48707 18.3592 3.76256 18.6145 4.0918 18.7822L4.22461 18.8389C4.37418 18.8924 4.58253 18.936 4.91113 18.9629C5.36117 18.9997 5.94342 19 6.79981 19H17.2002C18.0566 19 18.6388 18.9997 19.0889 18.9629C19.5273 18.9271 19.7518 18.8619 19.9082 18.7822L20.0459 18.7051C20.3592 18.5129 20.6145 18.2374 20.7822 17.9082L20.8389 17.7754C20.8924 17.6258 20.936 17.4175 20.9629 17.0889C20.9997 16.6388 21 16.0566 21 15.2002V8.91992ZM6.79981 5C5.94342 5 5.36117 5.00035 4.91113 5.03711C4.58253 5.06396 4.37418 5.10762 4.22461 5.16113L4.0918 5.21778C3.76256 5.38555 3.48707 5.64085 3.29492 5.9541L3.21778 6.0918C3.16471 6.19594 3.11972 6.33059 3.08399 6.53809L10.7383 11.8965L11.1865 12.2061C11.5432 12.4473 11.6556 12.5038 11.7578 12.5293L11.8779 12.5508C11.9993 12.5657 12.1229 12.559 12.2422 12.5293L12.3564 12.4873C12.4916 12.4241 12.7154 12.2789 13.2617 11.8965L20.915 6.53809C20.8928 6.40872 20.8685 6.30747 20.8389 6.22461L20.7822 6.0918C20.6145 5.76256 20.3592 5.48707 20.0459 5.29492L19.9082 5.21778C19.7518 5.13809 19.5273 5.07293 19.0889 5.03711C18.6388 5.00035 18.0566 5 17.2002 5H6.79981ZM23 15.2002C23 16.0237 23.001 16.7016 22.9561 17.252C22.9159 17.7438 22.8356 18.2011 22.6504 18.6328L22.5645 18.8164C22.2289 19.4749 21.7183 20.0259 21.0918 20.4102L20.8164 20.5645C20.3311 20.8117 19.814 20.9101 19.252 20.9561C18.7016 21.001 18.0237 21 17.2002 21H6.79981C5.97632 21 5.29843 21.001 4.74805 20.9561C4.2562 20.9159 3.79892 20.8356 3.36719 20.6504L3.1836 20.5645C2.52513 20.2289 1.97414 19.7183 1.58985 19.0918L1.43555 18.8164C1.18827 18.3311 1.08988 17.814 1.04395 17.252C0.998979 16.7016 1 16.0237 1 15.2002V8.79981C1 8.18237 0.99982 7.64687 1.01856 7.18555C0.987417 7.02077 0.997515 6.84891 1.05176 6.68555C1.09988 6.1477 1.1975 5.6508 1.43555 5.1836L1.58985 4.90821C1.97414 4.2817 2.52513 3.7711 3.1836 3.43555L3.36719 3.34961C3.79892 3.16442 4.2562 3.08414 4.74805 3.04395C5.29843 2.99898 5.97632 3 6.79981 3H17.2002C18.0237 3 18.7016 2.99898 19.252 3.04395C19.814 3.08988 20.3311 3.18827 20.8164 3.43555L21.0918 3.58985C21.7183 3.97414 22.2289 4.52513 22.5645 5.1836L22.6504 5.36719C22.8277 5.78052 22.9064 6.21749 22.9482 6.68555C23.0025 6.84891 23.0126 7.02077 22.9814 7.18555C23.0002 7.64687 23 8.18237 23 8.79981V15.2002Z" fill="#222222"></path>
</svg>