<svg width="24" height="24" viewBox="0 0 24 24" fill="none" xmlns="http://www.w3.org/2000/svg">
<path d="M12 1C18.0751 1 23 5.92487 23 12C23 18.0751 18.0751 23 12 23C5.92487 23 1 18.0751 1 12C1 5.92487 5.92487 1 12 1ZM14.6094 10.3652C13.4788 10.3652 12.7276 10.9806 12.4199 11.5674H12.3906V10.5508H10.1729V18H12.4912V14.3008C12.4912 13.3205 12.6701 12.3898 13.8721 12.3896C15.0735 12.3899 15.0742 13.4918 15.0742 14.3574V17.9854H17.3857V13.9072C17.3857 11.8967 16.9559 10.3655 14.6094 10.3652ZM17.3857 17.9854V17.9932L17.3926 18V17.9854H17.3857ZM6.17871 10.5439V17.9932H8.49805V10.5439H6.17871ZM7.33887 6C6.602 6.00011 6.00011 6.60102 6 7.33789C6.0002 8.07469 6.60206 8.69032 7.33887 8.69043C8.07555 8.69016 8.67656 8.07459 8.67676 7.33789C8.67665 6.60112 8.0756 6.00027 7.33887 6Z" fill="#222222"></path>
</svg>