<svg width="24" height="24" viewBox="0 0 24 24" fill="none" xmlns="http://www.w3.org/2000/svg">
<path d="M19 14.7997C19 13.9433 18.9997 13.361 18.9629 12.911C18.936 12.5824 18.8924 12.3741 18.8389 12.2245L18.7822 12.0917C18.6145 11.7624 18.3592 11.4869 18.0459 11.2948L17.9082 11.2177C17.7518 11.138 17.5273 11.0728 17.0889 11.037C16.6388 11.0002 16.0566 10.9999 15.2002 10.9999H8.79981C7.94342 10.9999 7.36117 11.0002 6.91113 11.037C6.58253 11.0638 6.37418 11.1075 6.22461 11.161L6.0918 11.2177C5.76256 11.3854 5.48707 11.6407 5.29492 11.954L5.21778 12.0917C5.13809 12.2481 5.07293 12.4726 5.03711 12.911C5.00035 13.361 5 13.9433 5 14.7997V16.2001L5.00488 17.2968C5.00967 17.6056 5.01873 17.8637 5.03711 18.0887C5.07293 18.5272 5.13809 18.7517 5.21778 18.9081L5.29492 19.0458C5.48707 19.359 5.76256 19.6143 6.0918 19.7821L6.22461 19.8387C6.37418 19.8923 6.58253 19.9359 6.91113 19.9628C7.36117 19.9995 7.94342 19.9999 8.79981 19.9999H15.2002C16.0566 19.9999 16.6388 19.9995 17.0889 19.9628C17.5273 19.9269 17.7518 19.8618 17.9082 19.7821L18.0459 19.705C18.3592 19.5128 18.6145 19.2373 18.7822 18.9081L18.8389 18.7753C18.8924 18.6257 18.936 18.4174 18.9629 18.0887C18.9997 17.6387 19 17.0565 19 16.2001V14.7997ZM11 13.4999H13V17.4999H11V13.4999ZM16 7.99988C16 5.79074 14.2091 3.99988 12 3.99988C9.79086 3.99988 8 5.79074 8 7.99988V9.00281C8.24982 9.00109 8.51616 8.99988 8.79981 8.99988H15.2002C15.4838 8.99988 15.7502 9.00109 16 9.00281V7.99988ZM18 9.15125C18.2825 9.21317 18.5544 9.30191 18.8164 9.43542L19.0918 9.58972C19.7183 9.97401 20.2289 10.525 20.5645 11.1835L20.6504 11.3671C20.8356 11.7988 20.9159 12.2561 20.9561 12.7479C21.001 13.2983 21 13.9762 21 14.7997V16.2001C21 17.0236 21.001 17.7015 20.9561 18.2518C20.9159 18.7437 20.8356 19.201 20.6504 19.6327L20.5645 19.8163C20.2289 20.4748 19.7183 21.0257 19.0918 21.41L18.8164 21.5643C18.3311 21.8116 17.814 21.91 17.252 21.9559C16.7016 22.0009 16.0237 21.9999 15.2002 21.9999H8.79981C7.97632 21.9999 7.29843 22.0009 6.74805 21.9559C6.2562 21.9157 5.79892 21.8355 5.36719 21.6503L5.1836 21.5643C4.52513 21.2288 3.97414 20.7182 3.58985 20.0917L3.43555 19.8163C3.18827 19.331 3.08988 18.8139 3.04395 18.2518C3.02146 17.9766 3.01031 17.6693 3.00488 17.328L3 16.2001V14.7997C3 13.9762 2.99898 13.2983 3.04395 12.7479C3.08988 12.1859 3.18827 11.6688 3.43555 11.1835L3.58985 10.9081C3.97414 10.2816 4.52513 9.77097 5.1836 9.43542L5.36719 9.34949C5.57195 9.26166 5.78283 9.19885 6 9.15125V7.99988C6 4.68617 8.68629 1.99988 12 1.99988C15.3137 1.99988 18 4.68617 18 7.99988V9.15125Z" fill="#222222"></path>
</svg>