<svg width="24" height="24" viewBox="0 0 24 24" fill="none" xmlns="http://www.w3.org/2000/svg">
<path d="M12.1533 17.5078C12.9097 17.5846 13.5 18.2233 13.5 19C13.5 19.3849 13.3535 19.7345 13.1152 20H18V6.2002C18 5.62365 17.9987 5.25112 17.9756 4.96778C17.959 4.76435 17.9344 4.65668 17.9121 4.59473L17.8906 4.5459C17.8187 4.40484 17.7148 4.28366 17.5879 4.19141L17.4541 4.10938C17.4047 4.08419 17.3038 4.04662 17.0322 4.02442C16.8906 4.01285 16.7268 4.00602 16.5264 4.00293L15.7998 4H8.2002C7.62364 4 7.25111 4.00127 6.96777 4.02442C6.76434 4.04105 6.65667 4.06565 6.59473 4.0879L6.5459 4.10938C6.40484 4.1813 6.28366 4.28523 6.19141 4.41211L6.10938 4.5459C6.08419 4.59534 6.04661 4.69619 6.02441 4.96778C6.00126 5.25112 6 5.62365 6 6.2002V20H10.8848C10.6785 19.7702 10.5407 19.4777 10.5078 19.1533L10.5 19L10.5078 18.8467C10.5846 18.0903 11.2233 17.5 12 17.5L12.1533 17.5078ZM8 10H10V13.5L10.0098 13.6006C10.0563 13.8286 10.2583 14 10.5 14C10.7417 14 10.9437 13.8286 10.9902 13.6006L11 13.5V12.5C11 11.1193 12.1193 10 13.5 10C14.7095 10 15.7186 10.8589 15.9502 12H17V14H16V16H14V12.5L13.9902 12.3994C13.9437 12.1715 13.7417 12 13.5 12C13.2239 12 13 12.2239 13 12.5V13.5L12.9873 13.7559C12.8592 15.0164 11.7943 16 10.5 16C9.29051 16 8.28142 15.1411 8.0498 14H7V12H8V10ZM12.1533 5.50782C12.9097 5.58461 13.5 6.22334 13.5 7C13.5 7.82843 12.8284 8.5 12 8.5C11.2233 8.5 10.5846 7.90973 10.5078 7.15332L10.5 7L10.5078 6.84668C10.5846 6.09028 11.2233 5.5 12 5.5L12.1533 5.50782ZM20 20H23V22H1V20H4V6.2002C4 5.65665 3.99893 5.18836 4.03027 4.80469C4.06258 4.40943 4.1344 4.016 4.32715 3.6377L4.44238 3.43165C4.73057 2.96167 5.14381 2.57888 5.6377 2.32715L5.78027 2.25977C6.11438 2.11652 6.45881 2.05855 6.80469 2.03028C7.18836 1.99893 7.65664 2 8.2002 2H15.7998L16.5576 2.00391C16.7904 2.00764 17.0035 2.01461 17.1953 2.03028C17.5906 2.06259 17.984 2.1344 18.3623 2.32715L18.5684 2.44239C19.0383 2.73058 19.4211 3.14381 19.6729 3.6377L19.7402 3.78028C19.8835 4.11438 19.9415 4.45882 19.9697 4.80469C20.0011 5.18836 20 5.65665 20 6.2002V20Z" fill="#222222"></path>
</svg>