<svg width="24" height="24" viewBox="0 0 24 24" fill="none" xmlns="http://www.w3.org/2000/svg">
<path d="M21 12.1417L16.0046 17L14.7202 15.6781L17.5231 13.0765H8V11.2068H17.5231L14.7202 8.32194L16.0046 7L21 12.1417Z" fill="#222222" stroke="#222222" stroke-width="0.3" stroke-linecap="square"></path>
<path d="M3 12C3 7.60309 6.49353 4.00003 10.8501 4C11.9686 4 13.0348 4.23945 14 4.67076L13.0711 6.75781C12.3917 6.45426 11.6414 6.28571 10.8501 6.28571C7.79553 6.28574 5.28109 8.82276 5.28109 12C5.28109 15.1772 7.79553 17.7143 10.8501 17.7143C11.6414 17.7143 12.3917 17.5457 13.0711 17.2422L14 19.3292C13.0348 19.7605 11.9686 20 10.8501 20C6.49353 20 3 16.3969 3 12Z" fill="#222222"></path>
</svg>