<svg width="24" height="24" viewBox="0 0 24 24" fill="none" xmlns="http://www.w3.org/2000/svg">
<path d="M20.0002 11.1999C20.0002 10.6234 19.999 10.2508 19.9758 9.96747C19.9592 9.76394 19.9346 9.65629 19.9124 9.59442L19.8909 9.5456C19.8189 9.40459 19.715 9.28331 19.5881 9.1911L19.4543 9.10907C19.4049 9.08388 19.3041 9.04631 19.0325 9.02411C18.8909 9.01254 18.727 9.00669 18.5266 9.0036L17.8 8.9997H6.20044C5.62389 8.9997 5.25135 9.00096 4.96802 9.02411C4.76434 9.04076 4.65689 9.0663 4.59497 9.08856L4.54614 9.10907C4.4051 9.18096 4.28391 9.28498 4.19165 9.41181L4.10962 9.5456C4.08444 9.59501 4.04686 9.69612 4.02466 9.96747C4.00151 10.2508 4.00024 10.6234 4.00024 11.1999V17.8005L4.00317 18.5261C4.00626 18.7265 4.01309 18.8903 4.02466 19.0319C4.04685 19.3036 4.08443 19.4044 4.10962 19.4538L4.19165 19.5886C4.28391 19.7153 4.40514 19.8195 4.54614 19.8913L4.59497 19.9118C4.65691 19.9341 4.76444 19.9596 4.96802 19.9763C5.25135 19.9994 5.62389 19.9997 6.20044 19.9997H17.8L18.5266 19.9968C18.727 19.9937 18.8909 19.9878 19.0325 19.9763C19.3041 19.9541 19.4049 19.9165 19.4543 19.8913L19.5881 19.8083C19.715 19.716 19.819 19.5949 19.8909 19.4538L19.9124 19.405C19.9346 19.343 19.9592 19.2351 19.9758 19.0319C19.999 18.7487 20.0002 18.3766 20.0002 17.8005V11.1999ZM16.6536 13.0075C17.4099 13.0843 18.0001 13.7232 18.0002 14.4997C18.0002 15.3281 17.3287 15.9997 16.5002 15.9997C15.7235 15.9997 15.0847 15.4096 15.0081 14.653L15.0002 14.4997L15.0081 14.3464C15.085 13.5901 15.7237 12.9997 16.5002 12.9997L16.6536 13.0075ZM15.0002 4.50067C15.0002 4.06542 14.9994 3.80739 14.9827 3.62372C14.9818 3.6139 14.9787 3.60495 14.9778 3.59638C14.9699 3.59903 14.9613 3.60104 14.9524 3.60419C14.8656 3.63503 14.7636 3.67783 14.634 3.73505L14.1487 3.95575L7.55298 6.9997H15.0002V4.50067ZM17.0002 6.9997H17.8L18.5579 7.0036C18.7907 7.00733 19.0038 7.01528 19.1956 7.03095C19.5908 7.06326 19.9843 7.1341 20.3625 7.32685L20.5686 7.44306C21.0386 7.7313 21.4214 8.14444 21.6731 8.63837L21.7405 8.78095C21.8836 9.11496 21.9417 9.45959 21.97 9.80536C22.0013 10.1889 22.0002 10.6566 22.0002 11.1999V17.8005C22.0002 18.3438 22.0013 18.8115 21.97 19.195C21.9417 19.5409 21.8837 19.8853 21.7405 20.2194L21.6731 20.362C21.4214 20.856 21.0386 21.2691 20.5686 21.5573L20.3625 21.6725C19.9843 21.8653 19.5908 21.9371 19.1956 21.9694C19.0038 21.9851 18.7907 21.993 18.5579 21.9968L17.8 21.9997H6.20044C5.65689 21.9997 5.1886 22.0008 4.80493 21.9694C4.45902 21.9411 4.11465 21.8832 3.78052 21.7399L3.63794 21.6725C3.14427 21.4209 2.73078 21.0387 2.44263 20.569L2.32739 20.362C2.1346 19.9836 2.06282 19.5904 2.03052 19.195C2.01484 19.0031 2.00787 18.7902 2.00415 18.5573L2.00024 17.8005V10.0475C2.00024 9.38109 1.98611 8.80136 2.1731 8.27509L2.2356 8.11493C2.39045 7.74737 2.61751 7.41405 2.90356 7.13446L3.05884 6.99481C3.43663 6.68522 3.91098 6.47855 4.44067 6.23407L13.3108 2.14032L13.8264 1.90497C13.9893 1.83322 14.1424 1.77017 14.2825 1.7204C14.5629 1.62078 14.93 1.52237 15.3362 1.59149L15.5325 1.63544C15.9205 1.74256 16.2677 1.96384 16.5276 2.27118L16.6497 2.43231L16.7297 2.56122C16.8983 2.86438 16.9502 3.18288 16.9739 3.44208C17.0009 3.73817 17.0002 4.10419 17.0002 4.50067V6.9997Z" fill="#222222"></path>
</svg>