<svg width="24" height="24" viewBox="0 0 24 24" fill="none" xmlns="http://www.w3.org/2000/svg">
<path d="M20.4474 7.825H18.2372C16.8172 7.825 15.4526 8.36743 14.4449 9.33672C13.4368 10.3064 12.8684 11.6239 12.8684 13V13.1125H15.0786C16.4986 13.1125 17.8632 12.5701 18.8709 11.6008C19.879 10.6311 20.4474 9.31358 20.4474 7.9375V7.825ZM22.3421 7.9375C22.3421 9.7838 21.5796 11.5566 20.2189 12.8655C18.8577 14.1748 17.0088 14.9125 15.0786 14.9125H12.8684V22C12.5 22 12.4443 22 11.9211 22C11.3978 22 11.5 22 10.9737 22V13C10.9737 12.9625 10.9758 12.925 10.9765 12.8875H8.76347C6.83333 12.8875 4.98443 12.1498 3.62325 10.8405C2.26248 9.53163 1.5 7.7588 1.5 5.9125V4.9C1.5 4.40294 1.92415 4 2.44737 4H5.60495C7.53509 4 9.38399 4.73769 10.7452 6.04697C11.5414 6.81284 12.1308 7.73812 12.4845 8.74346C12.6728 8.50878 12.8765 8.28396 13.0969 8.07197C14.4581 6.76269 16.307 6.025 18.2372 6.025H21.3947L21.4919 6.02939C21.9695 6.07559 22.3421 6.45909 22.3421 6.925V7.9375ZM3.40121 6.17002C3.46741 7.45207 4.02619 8.66678 4.97122 9.57578C5.97892 10.5451 7.3435 11.0875 8.76347 11.0875H10.9737V10.975C10.9737 9.59892 10.4053 8.28138 9.3972 7.31172C8.3895 6.34243 7.02492 5.8 5.60495 5.8H3.39474V5.9125L3.40121 6.17002Z" fill="#222222"></path>
</svg>