<svg width="24" height="24" viewBox="0 0 24 24" fill="none" xmlns="http://www.w3.org/2000/svg">
<path d="M12 1C18.0751 1 23 5.92487 23 12C23 18.0751 18.0751 23 12 23C5.92487 23 1 18.0751 1 12C1 5.92487 5.92487 1 12 1ZM10.6855 12.6689L6 18H7.05664L11.1553 13.3438L14.4277 18H18L13.1387 11.082H13.1445L17.6104 6H16.5527L12.6758 10.4131L9.57227 6H6L10.6855 12.6689ZM12.1162 11.043L12.5908 11.707L16.5527 17.2539H14.9248L11.6924 12.7295L11.2168 12.0664L7.44141 6.7793H9.06934L12.1162 11.043Z" fill="#222222"></path>
</svg>